HIERARCHY
ROOT Hips
{
	OFFSET -14.64140 90.27770 -84.91600
	CHANNELS 6 Xposition Yposition Zposition Zrotation Xrotation Yrotation
	JOINT Spine
	{
		OFFSET 0.00000 13.20850 -1.60436
		CHANNELS 3 Zrotation Xrotation Yrotation
		JOINT Spine1
		{
			OFFSET 0.00000 8.61716 0.00000
			CHANNELS 3 Zrotation Xrotation Yrotation
			JOINT Spine2
			{
				OFFSET 0.00000 8.61717 0.00000
				CHANNELS 3 Zrotation Xrotation Yrotation
				JOINT Spine3
				{
					OFFSET 0.00000 8.61717 0.00000
					CHANNELS 3 Zrotation Xrotation Yrotation
					JOINT Neck
					{
						OFFSET 0.00000 11.07920 1.10792
						CHANNELS 3 Zrotation Xrotation Yrotation
						JOINT Neck1
						{
							OFFSET 0.00000 7.08032 0.00000
							CHANNELS 3 Zrotation Xrotation Yrotation
							JOINT Head
							{
								OFFSET 0.00000 7.08031 0.00000
								CHANNELS 3 Zrotation Xrotation Yrotation
								End site
								{
									OFFSET 0.00000 0.00000 0.00000
								}
							}
						}
					}
					JOINT RightShoulder
					{
						OFFSET -0.01000 7.91373 5.19711
						CHANNELS 3 Zrotation Xrotation Yrotation
						JOINT RightArm
						{
							OFFSET -18.41580 0.00000 0.00000
							CHANNELS 3 Zrotation Xrotation Yrotation
							JOINT RightForeArm
							{
								OFFSET -29.11090 0.00000 0.00000
								CHANNELS 3 Zrotation Xrotation Yrotation
								JOINT RightHand
								{
									OFFSET -24.65040 0.00000 0.00000
									CHANNELS 3 Zrotation Xrotation Yrotation
									JOINT RightHandThumb1
									{
										OFFSET -5.35114 -0.85590 3.97906
										CHANNELS 3 Zrotation Xrotation Yrotation
										JOINT RightHandThumb2
										{
											OFFSET -4.52789 0.00000 0.00000
											CHANNELS 3 Zrotation Xrotation Yrotation
											JOINT RightHandThumb3
											{
												OFFSET -2.46976 0.00000 0.00000
												CHANNELS 3 Zrotation Xrotation Yrotation
												End site
												{
													OFFSET 0.00000 0.00000 0.00000
												}
											}
										}
									}
									JOINT RightHandIndex1
									{
										OFFSET -14.26970 0.00000 2.88139
										CHANNELS 3 Zrotation Xrotation Yrotation
										JOINT RightHandIndex2
										{
											OFFSET -5.48836 0.00000 0.00000
											CHANNELS 3 Zrotation Xrotation Yrotation
											JOINT RightHandIndex3
											{
												OFFSET -3.01859 0.00000 0.00000
												CHANNELS 3 Zrotation Xrotation Yrotation
												End site
												{
													OFFSET 0.00000 0.00000 0.00000
												}
											}
										}
									}
									JOINT RightHandMiddle1
									{
										OFFSET -14.26970 0.00000 -0.09147
										CHANNELS 3 Zrotation Xrotation Yrotation
										JOINT RightHandMiddle2
										{
											OFFSET -6.17441 0.00000 0.00000
											CHANNELS 3 Zrotation Xrotation Yrotation
											JOINT RightHandMiddle3
											{
												OFFSET -3.56743 0.00000 0.00000
												CHANNELS 3 Zrotation Xrotation Yrotation
												End site
												{
													OFFSET 0.00000 0.00000 0.00000
												}
											}
										}
									}
									JOINT RightHandRing1
									{
										OFFSET -12.69180 0.00000 -3.06433
										CHANNELS 3 Zrotation Xrotation Yrotation
										JOINT RightHandRing2
										{
											OFFSET -5.62556 0.00000 0.00000
											CHANNELS 3 Zrotation Xrotation Yrotation
											JOINT RightHandRing3
											{
												OFFSET -3.56744 0.00000 0.00000
												CHANNELS 3 Zrotation Xrotation Yrotation
												End site
												{
													OFFSET 0.00000 0.00000 0.00000
												}
											}
										}
									}
									JOINT RightHandPinky1
									{
										OFFSET -11.11390 0.00000 -6.03719
										CHANNELS 3 Zrotation Xrotation Yrotation
										JOINT RightHandPinky2
										{
											OFFSET -4.52789 0.00000 0.00000
											CHANNELS 3 Zrotation Xrotation Yrotation
											JOINT RightHandPinky3
											{
												OFFSET -2.46976 0.00000 0.00000
												CHANNELS 3 Zrotation Xrotation Yrotation
												End site
												{
													OFFSET 0.00000 0.00000 0.00000
												}
											}
										}
									}
								}
							}
						}
					}
					JOINT LeftShoulder
					{
						OFFSET 0.01000 7.91373 5.19711
						CHANNELS 3 Zrotation Xrotation Yrotation
						JOINT LeftArm
						{
							OFFSET 18.41580 0.00000 0.00000
							CHANNELS 3 Zrotation Xrotation Yrotation
							JOINT LeftForeArm
							{
								OFFSET 29.11090 0.00000 0.00000
								CHANNELS 3 Zrotation Xrotation Yrotation
								JOINT LeftHand
								{
									OFFSET 24.65040 0.00000 0.00000
									CHANNELS 3 Zrotation Xrotation Yrotation
									JOINT LeftHandThumb1
									{
										OFFSET 5.35114 -0.85590 3.97906
										CHANNELS 3 Zrotation Xrotation Yrotation
										JOINT LeftHandThumb2
										{
											OFFSET 4.52789 0.00000 0.00000
											CHANNELS 3 Zrotation Xrotation Yrotation
											JOINT LeftHandThumb3
											{
												OFFSET 2.46977 0.00000 0.00000
												CHANNELS 3 Zrotation Xrotation Yrotation
												End site
												{
													OFFSET 0.00000 0.00000 0.00000
												}
											}
										}
									}
									JOINT LeftHandIndex1
									{
										OFFSET 14.26970 0.00000 2.88139
										CHANNELS 3 Zrotation Xrotation Yrotation
										JOINT LeftHandIndex2
										{
											OFFSET 5.48836 0.00000 0.00000
											CHANNELS 3 Zrotation Xrotation Yrotation
											JOINT LeftHandIndex3
											{
												OFFSET 3.01859 0.00000 0.00000
												CHANNELS 3 Zrotation Xrotation Yrotation
												End site
												{
													OFFSET 0.00000 0.00000 0.00000
												}
											}
										}
									}
									JOINT LeftHandMiddle1
									{
										OFFSET 14.26970 0.00000 -0.09147
										CHANNELS 3 Zrotation Xrotation Yrotation
										JOINT LeftHandMiddle2
										{
											OFFSET 6.17440 0.00000 0.00000
											CHANNELS 3 Zrotation Xrotation Yrotation
											JOINT LeftHandMiddle3
											{
												OFFSET 3.56744 0.00000 0.00000
												CHANNELS 3 Zrotation Xrotation Yrotation
												End site
												{
													OFFSET 0.00000 0.00000 0.00000
												}
											}
										}
									}
									JOINT LeftHandRing1
									{
										OFFSET 12.69180 0.00000 -3.06433
										CHANNELS 3 Zrotation Xrotation Yrotation
										JOINT LeftHandRing2
										{
											OFFSET 5.62556 0.00000 0.00000
											CHANNELS 3 Zrotation Xrotation Yrotation
											JOINT LeftHandRing3
											{
												OFFSET 3.56744 0.00000 0.00000
												CHANNELS 3 Zrotation Xrotation Yrotation
												End site
												{
													OFFSET 0.00000 0.00000 0.00000
												}
											}
										}
									}
									JOINT LeftHandPinky1
									{
										OFFSET 11.11390 0.00000 -6.03719
										CHANNELS 3 Zrotation Xrotation Yrotation
										JOINT LeftHandPinky2
										{
											OFFSET 4.52789 0.00000 0.00000
											CHANNELS 3 Zrotation Xrotation Yrotation
											JOINT LeftHandPinky3
											{
												OFFSET 2.46976 0.00000 0.00000
												CHANNELS 3 Zrotation Xrotation Yrotation
												End site
												{
													OFFSET 0.00000 0.00000 0.00000
												}
											}
										}
									}
								}
							}
						}
					}
					JOINT pCube4
					{
						OFFSET 0.00000 10.91090 1.10792
						CHANNELS 3 Zrotation Xrotation Yrotation
						End site
						{
							OFFSET 0.00000 0.00000 0.00000
						}
					}
				}
			}
		}
	}
	JOINT RightUpLeg
	{
		OFFSET -9.98441 0.00000 0.00000
		CHANNELS 3 Zrotation Xrotation Yrotation
		JOINT RightLeg
		{
			OFFSET 0.00000 -42.11790 0.00000
			CHANNELS 3 Zrotation Xrotation Yrotation
			JOINT RightFoot
			{
				OFFSET 0.00000 -45.00020 -0.00001
				CHANNELS 3 Zrotation Xrotation Yrotation
				JOINT RightForeFoot
				{
					OFFSET 0.00000 -3.74820 0.00000
					CHANNELS 3 Zrotation Xrotation Yrotation
					JOINT RightToeBase
					{
						OFFSET 0.00000 0.06325 14.43120
						CHANNELS 3 Zrotation Xrotation Yrotation
						End site
						{
							OFFSET 0.00000 0.00000 0.00000
						}
					}
				}
			}
		}
	}
	JOINT LeftUpLeg
	{
		OFFSET 9.98441 0.00000 0.00000
		CHANNELS 3 Zrotation Xrotation Yrotation
		JOINT LeftLeg
		{
			OFFSET 0.00000 -42.11800 0.00000
			CHANNELS 3 Zrotation Xrotation Yrotation
			JOINT LeftFoot
			{
				OFFSET 0.00000 -45.00070 0.00000
				CHANNELS 3 Zrotation Xrotation Yrotation
				JOINT LeftForeFoot
				{
					OFFSET 0.00000 -3.74824 0.00000
					CHANNELS 3 Zrotation Xrotation Yrotation
					JOINT LeftToeBase
					{
						OFFSET 0.00000 0.06325 14.43110
						CHANNELS 3 Zrotation Xrotation Yrotation
						End site
						{
							OFFSET 0.00000 0.00000 0.00000
						}
					}
				}
			}
		}
	}
}
MOTION
Frames: 4
Frame Time: 0.050000
0.002939408661883732 -0.01623815759901888 -0.030130119858843132 -0.021784630480441384 -0.025391660674255204 -0.00023177220047564974 -4.604451220731596 8.050209841639067 -0.5495921029134966 -0.6913465010155367 2.911599005302045 0.42980687723564576 -1.0306934197020987 0.2407961095091851 -1.2474871616543568 -0.6683514791537128 0.2532269090466908 -1.0666686750074355 -0.1174819200973319 7.3739260367755595 0.08438440465244279 -0.10054118886961796 -1.3504368323076836 -3.1378307276340482 -0.07597877776922367 -15.412625764922762 -0.14944714591579725 4.145027905618397 -0.18630612500501745 -9.875930753711723 58.68948557524654 -12.841192525582576 25.74344612806785 29.318770649942422 9.246882737981679 101.45624763676216 24.81802494580256 -0.06084611792611744 -10.754908159848181 4.538786417617582 -0.13407118007451502 -1.5745585319500437 0.03606909450768776 0.0012622132113142743 -56.28005552242216 -0.02076474699191045 -0.04232185220215235 -56.23218101161326 -38.738929831768694 -0.03272639494648518 0.02382761317912003 -0.01633293389203677 -0.0007459943520342052 -0.03974366623767531 0.014932360682924181 0.02513042353146755 -0.03130337360167601 -36.742409978255225 0.040201367107029755 -0.0468315079048013 -0.007289111774459983 -0.03748761011671753 0.018067502701833528 0.02812283693172458 -0.015744144907246037 -0.025312636160335078 -19.740947201985335 0.014164850117291773 -0.037623886170043565 -0.01285232280575216 -0.01259009453688434 -0.0397243395219244 -0.005820147728511954 0.01120333121328824 -0.04623093094334704 24.074391228200117 0.030313501812145392 -0.03421477778125566 28.822836523957264 0.017642532628338016 0.012245587931661741 28.887840663604475 0.007001906200729735 -0.04892690894146204 -3.5112902113829976 -0.13069436334016388 8.535959045719503 -60.60356275175002 18.697555619736683 -20.65587931371737 -44.73360810343572 9.61632419839472 -100.25625704410595 -12.670773587297578 2.896303719668859 -1.8084834325478711 -0.47278030845942803 0.021483465421879983 -8.085194663901401 -0.01250266181105837 0.0059077870418192 44.53340093209978 0.03142249705603153 0.027035963459526302 44.57428943615524 12.446245889801014 -0.013999620335334995 0.02684477974034875 -0.008988607885154053 0.00047582707958662284 0.030115515527762343 -0.009043036521961069 0.016282274968323216 -0.03565186236542185 11.09508047251376 -0.03995142577666447 -0.006631077265318916 -0.03238931172750068 -0.0009613638801064906 -0.0067441261669210694 0.01876252437140471 0.007646714713570537 -0.04972103072639671 4.787707787421606 -0.001471035971352003 0.007235411453429711 -0.028344385277346732 -0.02591146928170004 -0.017827547642416407 -0.04148266696405682 -0.040742205702545775 -0.011113561720248808 -5.589603996512616 0.014160145217975895 -0.03567123650994824 -6.719601517307199 0.0029464747834147893 -0.041449745784522714 -6.720125593175491 0.0012520774383917752 -0.01264762314223636 0.03643906526121412 -0.020789020480755205 -0.0344564314048254 8.082661502888188 3.5077966046699394 -19.203820213260105 -0.0499097519873638 10.398938358739137 -0.005213022695074791 -5.590211283206449 -15.691028681924095 3.237369406867552 -0.010880341143683574 0.04043164518265549 0.03074001388521038 0.008238354205639202 4.683548043949869 -0.013258992130090444 12.464443259143609 -8.20948474117661 6.884404081206397 0.0490280559036271 46.409526006662006 -0.04368317808663212 -4.291654420759993 -14.704881143276593 -3.788966947656755 -0.008769663560293812 -0.007145102672078994 -0.04935199899980435 0.02883702504938216 -10.709242543553865 0.04306239446892922 
0.006820703555785392 -0.039840355546613894 0.03894860929388714 0.016418851902060754 0.04907705079799529 0.013970903219906787 -4.519182189078351 7.890427731954198 -0.5343057686625005 -0.7068121584417777 2.926753969614096 0.3637020342778199 -1.048830702878446 0.19851428367657245 -1.470090342648299 -0.5640044539422522 0.2187355808960366 -1.0966051749764767 -0.054099223960854224 7.564081988896224 -0.11773602447463027 -0.09488731584411207 -1.2857291170493337 -3.490724730427661 -0.06532652153881804 -15.337538216999457 -0.20794896939085072 3.8972757808158844 -0.10964006195045718 -9.824724408509553 56.450566264794766 -13.739601620369271 28.11783230167123 29.723223007904366 9.745154053670309 100.63039718832106 25.171287517751686 -0.1067276873103323 -11.095043425426706 4.542021314708444 -0.1469354579763999 -1.6108722610771578 0.041370305066194504 -0.020164691027988704 -56.2817457701194 -0.03162474084396673 0.02464009000885982 -56.264344561042726 -38.74358438382317 0.01771202232478355 0.036065717193630976 0.014674158131880725 -0.003570115693371933 0.02126203520705183 -0.03105148015964941 0.048019544486390855 -0.024158662209214397 -36.72705008020942 0.03508817399588189 0.01989511020507264 -0.02725187019018551 -0.031009697445125033 0.028390085798025145 0.0008074105938966909 -0.01992724179596381 -0.0007845912945128031 -19.79249304751747 0.005944057132610263 0.022917570786903364 -0.04330839244485828 -0.03309275991503716 0.023065493291480856 -0.044406129781842614 0.018144144060103964 -0.0003562991274063798 24.0306839572682 -0.03166623934094636 -0.012929422473600226 28.88672014382561 0.010898724256949552 -0.03158886731775313 28.85019724294349 0.01580681551730385 0.011423024517828137 -3.3415664242260017 -0.05451586076392001 8.307527992900267 -58.69108223499726 19.928645673789493 -22.94313734301832 -41.879489715445835 9.213990129405706 -100.11909836848713 -13.18131413268749 2.59762340206768 -1.7991293135825597 -0.481525009329468 0.03547346737746395 -8.110522687617486 -0.02934433374457291 -0.04906833382285153 44.546893745039974 0.03785559983986052 0.006098764595562649 44.613154538211674 12.412611707045274 -0.003187386360393604 -0.01023150884138624 0.006298901879465755 -0.03487899479970722 -0.010420843654619994 -0.007879941356936919 -0.021343732758580418 0.01639991557817615 11.059099784400962 -0.03050893236058136 -0.026153082934620236 -0.015251733335243626 -0.042153182877596874 0.017025293511362123 -0.023185083670993215 -0.03137636965466213 0.00929934781765748 4.7670013397864635 -0.016734993622744023 -0.01818098204708766 0.021803033388792067 0.009188118962328025 0.0014118870963560546 0.003075930770095786 -0.019056029755412 -0.00812452629341724 -5.604961001315595 0.01044922344297424 -0.0027919763796550095 -6.690044491406466 -0.009624159196799821 0.005963295444832842 -6.69025082688965 -0.016921880953563766 0.008648511624333863 0.0449046219155541 0.011142957622142638 0.02004855897331995 8.075928494707926 3.473665207605743 -19.264044321993413 -0.04576443858679115 10.397722434148708 0.05956219341881243 -5.669029665019946 -15.676602384195116 3.1720900342062883 -0.0003131865185778726 0.03846071390177028 -0.048871427659331924 0.010386856780296464 4.6786291328263125 0.01387604239139485 12.435838836922354 -8.274160227248236 6.833815368236449 0.02730173400007494 46.419453359544676 -0.03516989061784917 -4.3323947775863205 -14.774475101364693 -3.8087322623493596 0.01968151729610092 -0.007626432668290002 0.03712010599012503 0.009896404588965478 -10.768182265169962 0.021299187037208137 
0.012778012988562607 -0.01903947693305292 -0.012447946758221792 0.006656273630264853 -0.01378773762722553 -0.012036172660821213 -4.397476826200574 7.795279117832426 -0.5427139973481601 -0.6556646897513815 2.9690159936931253 0.32942433783789415 -0.9890934273281888 0.1631271754580004 -1.6962982943420108 -0.5057118306979076 0.2878582091285026 -1.0920212336035804 0.05592918969667769 7.718500665993273 -0.2910504169250479 -0.09768980678202298 -1.1520043609904969 -3.7134736296280706 -0.0073827449220777025 -15.195618146930238 -0.20670944322830317 3.529598097614081 0.012631429868647265 -9.67972371118001 54.3547344452274 -14.594535444986905 30.45578446157166 30.266064303182297 10.19928951678759 99.345003603994 25.589707199425018 -0.0769766160460951 -11.503380843908815 4.549964788786507 -0.17069735060044813 -1.5627098071704362 -0.0014080037538545483 -0.013114078137514723 -56.186213748556746 0.029777188799241697 0.003863941425968227 -56.215040254171015 -38.756961463440675 0.04420376667497687 -0.030707151579802673 0.019577110295084327 -0.03142251786594433 0.013221469654353004 0.03916059342982907 -0.004264666988443867 0.0015879527884590005 -36.66056474035265 0.013140608891436444 0.008830060656309755 -0.002716093899598612 -0.012759491161635703 0.02528105770180039 0.03494902157652809 0.03507069793261015 0.008483880103962364 -19.76150333167742 -0.0060749765335676945 -0.030368067430325062 -0.016924332624894605 -0.04462707040220832 -0.006833927114387299 0.017830222346472486 -0.03621348897153531 0.031733800282837885 24.064305326752393 0.017502621848624382 0.008613756213140849 28.859293850186475 -0.04456073605743365 0.0456196101831315 28.846532582366965 -0.04962939110816943 0.006362885050493029 -3.020613678632615 0.00624946800056158 8.033337313256878 -56.44503048437994 20.94202749390172 -25.63453474811606 -37.356657217893904 8.164534133243174 -99.09176874784521 -14.033965753097096 2.0868059648405537 -1.8045028435159667 -0.48772990520251747 0.07612566222403132 -8.123877663782947 0.013670556546408657 0.035861673095177675 44.57108416473797 0.002176491324535904 0.013851042971740323 44.588799862949486 12.468283348774884 -0.01924087002580739 0.04664330065303589 0.04216168218263513 0.033728258711961355 -0.022221344913312104 -0.0016595129646008126 0.010066181568678821 -0.006369627272962021 11.056746307116658 -0.03852944170770356 0.01485931360387146 0.02527014835333188 -0.03681149240920182 -0.007369912720829694 0.027375360104467047 0.037296707464291354 0.03062528755923404 4.790370200903733 -0.0493546176095685 -0.04984811584883472 -0.02589467809280083 -0.040363139587547815 -0.02009602284146017 -0.01914481152215698 -0.017468726375351223 0.021363173641507305 -5.590358249693396 0.008086787178990426 -0.005208377363363904 -6.718709056869078 -0.018535919931983513 -0.005784306143404383 -6.708349250701958 0.034525387310999536 -0.012622946468899379 0.0019934894431674374 0.0035512000008328178 0.02163983172803652 8.045418229515056 3.45664809698825 -19.22181700587794 0.01498292224185727 10.386120423061218 0.009143802303690097 -5.61827903365546 -15.66832917104336 3.2082556727691345 -0.03146784708565922 -0.005415667141220185 0.03586187227098726 0.010139255300307666 4.706779512082065 0.02026517274356106 12.442150718003091 -8.275231579382291 6.852974668761827 0.0005243269444792847 46.37878932433466 0.002061720828289215 -4.324992159582768 -14.758415708992656 -3.8641208423431994 -0.026413354291293396 -0.017353882889393338 0.039066121619397313 0.0005401898583028534 -10.750218732505902 0.034373660534363124 
0.0029607988491863104 -0.031828299794960165 -0.006584510781400559 -0.0309283115752695 0.03530104510873836 -0.01701457732127332 -4.184793732604828 7.71270667228231 -0.534612394112011 -0.7134616250443676 2.927950446487742 0.38360228101848437 -0.9696819027217151 0.18035734308839535 -1.8990794051036703 -0.45444447054963955 0.2450851165028145 -1.1045198267733556 0.06785154300836375 7.89250419357699 -0.488980484145454 -0.12073226544385168 -1.1249370622971973 -3.821814769962419 0.04265466446717584 -15.135141365184543 -0.22784316346176614 3.2432435091615286 0.08665868714134592 -9.601881826060183 53.15134591474071 -15.060769853205143 32.35934756861798 30.444840091540886 10.53732781237715 97.24005829268704 25.94460083047305 -0.017292697332308662 -11.765225889805405 4.564835291169674 -0.13224368998919936 -1.5663848142463035 0.0061986667959972935 0.008296387826954809 -56.26270422802921 0.01147929552788778 -0.027890478267712734 -56.20693991690251 -38.79153935220621 -0.014723749342786207 0.03322421742719098 -0.01886874259655202 0.0024223750181795413 0.01844757151246849 -0.005185747049845289 0.004334950639525238 -0.013231209755641519 -36.7104940531038 -0.011879579777705904 -0.029158790068774695 -0.04592283650036602 -0.03654545509515966 0.04151244759846978 0.0019419770264823455 -0.04144015904860455 -0.012704571871594959 -19.740205226643496 -0.000287752800420926 -0.025870652940163816 0.020972461404939677 0.005598554111837307 0.012781089180241925 0.005564785939601062 -0.036327865832869254 0.033885167266638795 24.07459481139668 0.036062267978759034 -0.013988095209919612 28.89692917420243 0.024368035108839895 -0.033085300549675754 28.84865272787908 -0.005335258317214379 0.029310999345945974 -2.6467320864249784 0.038855644081141595 7.8340856581786165 -54.6515502950989 21.706872893567486 -28.115116323773403 -33.100169098262434 7.108180284350285 -97.84953212566896 -14.836109420375806 1.665099965238326 -1.6813406312093113 -0.5100671715773908 0.04818922184189151 -8.087647746547058 0.025208831353807856 0.04574611862737335 44.53127284410182 -0.03738303944405556 -0.010057599893104148 44.55839682981469 12.461774006967728 -0.014920970663781683 0.012897741025505624 -0.018097552382497235 0.009749670756092798 -0.03318387109992031 -0.003586815532744403 -0.04182439024508418 -0.01272898712031466 11.107600167844918 0.012005245458840845 -0.018412566554797574 0.009907086298853564 -0.01152118134616498 0.017317515388426092 0.02891639470163887 -0.04469826509541668 -0.0320655600545649 4.775409974021465 -0.032076306765470894 0.023728038900409386 -0.024408337925761133 0.016935662740164954 0.0067750091713693434 0.02308699932921152 -0.03671247488674389 0.03525217812831068 -5.620629408320985 -0.009937221231546313 0.02117880182848912 -6.7486696275821005 -0.011923520323353632 0.009563245651375025 -6.7247138889471625 -0.03551769722658061 -0.020163344462806813 -0.037467732174077374 -0.004700867248105285 0.01017456491888015 8.001224503301367 3.4656779127451567 -19.222168988101807 -0.0291024042536157 10.362859072188595 0.01921441415964123 -5.605723058459556 -15.662717140642432 3.215055871014099 0.02550711645496397 0.03744737863238702 0.049536775860459785 -0.03957554773027122 4.692813870053913 -0.027478018545532546 12.507408587811694 -8.273374559263617 6.880204803075446 0.022227166813683634 46.40028184033826 -0.042498897530979594 -4.31852939964447 -14.752534175686572 -3.820421942474237 -0.020309449245129688 -0.02069450584941182 0.03742700870072317 -0.022114582684821294 -10.767494491134938 -0.04932538638477743 
